<?xml version="1.0" encoding="utf-8"?>
<!-- Generator: Adobe Illustrator 23.0.6, SVG Export Plug-In . SVG Version: 6.00 Build 0)  -->
<svg version="1.1" id="Layer_1" xmlns="http://www.w3.org/2000/svg" xmlns:xlink="http://www.w3.org/1999/xlink" x="0px" y="0px"
	 viewBox="0 0 80 138" style="enable-background:new 0 0 80 138;" xml:space="preserve">
<style type="text/css">
	.st0{fill:#CFA061;}
</style>
<g id="XMLID_11_">
	<polygon id="XMLID_4_" class="st0" points="40,104.3 0,132 0,138 40,110.3 80,138 80,132 	"/>
	<polygon id="XMLID_2_" class="st0" points="40,89.9 0,117.5 0,123.5 40,95.9 80,123.5 80,117.5 	"/>
	<polygon id="XMLID_3_" class="st0" points="40,75.4 0,103.1 0,109.1 40,81.4 80,109.1 80,103.1 	"/>
	<polygon id="XMLID_1_" class="st0" points="20.2,89.2 15.6,92.4 15.6,60.1 20.2,57 	"/>
	<polygon id="XMLID_6_" class="st0" points="31.2,81.5 26.5,84.8 26.5,52.3 31.2,49.3 	"/>
	<polygon id="XMLID_9_" class="st0" points="59.7,89.1 64.4,92.3 64.4,60.1 59.7,57 	"/>
	<polygon id="XMLID_8_" class="st0" points="48.7,81.5 53.4,84.7 53.4,52.3 48.7,49.3 	"/>
	<polygon id="XMLID_7_" class="st0" points="31.2,45.1 26.5,48.2 26.5,31.3 31.2,28.2 	"/>
	<polygon id="XMLID_10_" class="st0" points="48.7,45.1 53.4,48.2 53.4,31.3 48.7,28.2 	"/>
	<polygon id="XMLID_5_" class="st0" points="42.3,19.8 40,17.5 37.7,19.8 37.7,2 40,0 42.3,2 	"/>
	<polygon id="XMLID_12_" class="st0" points="42.3,41.4 40,39.1 37.7,41.4 37.7,23.6 40,21.6 42.3,23.6 	"/>
	<polygon id="XMLID_13_" class="st0" points="42.3,77 40,75.4 37.7,77 37.7,44.9 40,43.2 42.3,44.9 	"/>
</g>
</svg>
