<svg id="logo" xmlns="http://www.w3.org/2000/svg" viewBox="0 0 168 86"><defs><style>.cls-1{fill:#cfa061;}.cls-2{fill:#fff;}.cls-3{fill:#bdbec7;}</style></defs><title>logo2</title><polygon class="cls-1" points="25 65 0 82.3 0 86 25 68.8 50 86 50 82.3 25 65"/><polygon class="cls-1" points="25 56 0 73.2 0 77 25 59.7 50 77 50 73.2 25 56"/><polygon class="cls-1" points="25 47 0 64.2 0 68 25 50.7 50 68 50 64.2 25 47"/><polygon class="cls-1" points="12.6 55.6 9.7 57.6 9.7 37.4 12.6 35.5 12.6 55.6"/><polygon class="cls-1" points="19.5 50.8 16.6 52.8 16.6 32.6 19.5 30.7 19.5 50.8"/><polygon class="cls-1" points="37.3 55.5 40.2 57.6 40.2 37.4 37.3 35.5 37.3 55.5"/><polygon class="cls-1" points="30.5 50.8 33.4 52.8 33.4 32.6 30.5 30.7 30.5 50.8"/><polygon class="cls-1" points="19.5 28.1 16.6 30 16.6 19.5 19.5 17.6 19.5 28.1"/><polygon class="cls-1" points="30.5 28.1 33.4 30 33.4 19.5 30.5 17.6 30.5 28.1"/><polygon class="cls-1" points="26.4 12.4 25 10.9 23.6 12.4 23.6 1.2 25 0 26.4 1.2 26.4 12.4"/><polygon class="cls-1" points="26.4 25.8 25 24.4 23.6 25.8 23.6 14.7 25 13.5 26.4 14.7 26.4 25.8"/><polygon class="cls-1" points="26.4 48 25 47 23.6 48 23.6 28 25 26.9 26.4 28 26.4 48"/><path class="cls-2" d="M60.55,43.75v-.54l2.28-1.09v-20l-2.17-1.6v-.41l6.52-1.87h.41V30.43h.14a12.11,12.11,0,0,1,2.38-1.86,5.4,5.4,0,0,1,2.72-.66A5.23,5.23,0,0,1,76.21,29a3.8,3.8,0,0,1,1.31,3.13v10l2.28,1.09v.54H71v-.54l1.7-1.05V33.49a2.34,2.34,0,0,0-.7-1.82A2.52,2.52,0,0,0,70.28,31a4.74,4.74,0,0,0-1.41.24,3.33,3.33,0,0,0-1.28.68v10.2l1.74,1.05v.54Z"/><path class="cls-2" d="M89.83,44.09A8,8,0,0,1,85.58,43a7.83,7.83,0,0,1-2.86-2.94,8.2,8.2,0,0,1-1-4,8.29,8.29,0,0,1,1-4.08A7.64,7.64,0,0,1,85.58,29a8.12,8.12,0,0,1,4.25-1.09A8,8,0,0,1,94.06,29a7.73,7.73,0,0,1,2.84,2.92,8.29,8.29,0,0,1,1,4.08,8.2,8.2,0,0,1-1,4,7.81,7.81,0,0,1-7.07,4Zm.37-1.66a2,2,0,0,0,1.62-.8,5.1,5.1,0,0,0,.91-2.13A12.71,12.71,0,0,0,93,36.68a16.8,16.8,0,0,0-.35-3.47,6.87,6.87,0,0,0-1.13-2.65,2.4,2.4,0,0,0-2-1,2.07,2.07,0,0,0-1.67.8,5.28,5.28,0,0,0-.95,2.11,12.69,12.69,0,0,0-.3,2.84A15.29,15.29,0,0,0,87,38.77a6.7,6.7,0,0,0,1.17,2.64A2.51,2.51,0,0,0,90.2,42.43Z"/><path class="cls-2" d="M106.52,44.09A5.18,5.18,0,0,1,103.17,43a3.79,3.79,0,0,1-1.31-3.13v-10l-2.24-1.09v-.54h7V38.52a2.34,2.34,0,0,0,.68,1.82,2.44,2.44,0,0,0,1.73.63,4.24,4.24,0,0,0,1.36-.24,4,4,0,0,0,1.23-.65V29.88l-2-1.09v-.54h6.83V42.16l2.14,1.05v.54h-6.93V41.58h-.14a11.76,11.76,0,0,1-2.31,1.85A5.23,5.23,0,0,1,106.52,44.09Z"/><path class="cls-2" d="M120.29,43.75v-.54l2.25-1.09V32l-2.15-1.6V30l6.19-2.07H127l.3,3.06h.17A12.49,12.49,0,0,1,128.93,29a3.57,3.57,0,0,1,1.22-.89,3.48,3.48,0,0,1,1.26-.22A2.64,2.64,0,0,1,132,28a4,4,0,0,1,.63.18c.68.21,1,.52,1,.95a1.27,1.27,0,0,1-.14.58l-.81,2.21h-.24l-.89-.3a5.33,5.33,0,0,0-1.8-.31,3.09,3.09,0,0,0-2.48,1.33v9.48l2.75,1.09v.54Z"/><path class="cls-2" d="M141.13,44.09a6,6,0,0,1-3.4-.88,2.82,2.82,0,0,1-1.32-2.48V29.78H134V29.3l3.13-1.05,3.43-3.74h.65v3.74h4.72v1.53h-4.72v10.1a1.36,1.36,0,0,0,.75,1.29,3.6,3.6,0,0,0,1.76.41,6.43,6.43,0,0,0,1.14-.09c.33-.05.65-.12,1-.18l.1.06V42A5,5,0,0,1,144,43.43,6.24,6.24,0,0,1,141.13,44.09Z"/><path class="cls-2" d="M149.56,52a1.43,1.43,0,0,1-1-.22,1.26,1.26,0,0,1-.18-.77V48.62l.17-.17h1.53a6.92,6.92,0,0,0,1.41-.12,1.92,1.92,0,0,0,1-.65,6.78,6.78,0,0,0,1-1.75l.88-2.14-6.76-14.08-2.11-.92v-.54h9.38v.54l-2.11,1v.1l3.74,7.86h.24L159.66,30v-.14l-2-1.09v-.54h6.49v.54l-2.41,1.13-6.8,16.52c-.21.52-.38,1-.53,1.31s-.31.69-.49,1-.45.73-.79,1.21a4.51,4.51,0,0,1-3.57,2Z"/><path class="cls-3" d="M62.57,67.71a4.55,4.55,0,0,1-1.83-2,7,7,0,0,1-.63-3.08,7.14,7.14,0,0,1,.61-3.08,4.44,4.44,0,0,1,1.8-2,5.43,5.43,0,0,1,2.8-.69,5.25,5.25,0,0,1,2,.38,3.83,3.83,0,0,1,1.5,1.05l-.74,1.29a3.42,3.42,0,0,0-2.77-1.17,2.89,2.89,0,0,0-2.43,1.12A4.93,4.93,0,0,0,62,62.63a4.83,4.83,0,0,0,.9,3.1,3.09,3.09,0,0,0,2.55,1.12,3.56,3.56,0,0,0,1.44-.27,3.27,3.27,0,0,0,1.14-.85l1.12,1.06A4.44,4.44,0,0,1,67.54,68a5.18,5.18,0,0,1-2.09.43A5.69,5.69,0,0,1,62.57,67.71Z"/><path class="cls-3" d="M71.8,67.91a3.45,3.45,0,0,1-1.34-1.44,5,5,0,0,1,0-4.2,3.45,3.45,0,0,1,1.34-1.44,4.5,4.5,0,0,1,4.16,0,3.43,3.43,0,0,1,1.33,1.44,4.93,4.93,0,0,1,0,4.2A3.43,3.43,0,0,1,76,67.91a4.5,4.5,0,0,1-4.16,0Zm3.56-1.69a3.63,3.63,0,0,0,0-3.71,2,2,0,0,0-3,0,3.57,3.57,0,0,0,0,3.71,2,2,0,0,0,3,0Z"/><path class="cls-3" d="M88.33,66.32V63.55A2.24,2.24,0,0,0,88,62.26a1,1,0,0,0-.92-.42,1.28,1.28,0,0,0-1.07.47,2,2,0,0,0-.36,1.28v4.65H83.87v-4.7a2.28,2.28,0,0,0-.29-1.28,1,1,0,0,0-.9-.42,1.28,1.28,0,0,0-1.12.55A2.69,2.69,0,0,0,81.18,64v4.29H79.32V62.58a4.35,4.35,0,0,0-.07-.88A2.71,2.71,0,0,0,79,61l1.59-.64a4.31,4.31,0,0,1,.26.6,2.82,2.82,0,0,1,.14.65,2.32,2.32,0,0,1,.89-.92,2.43,2.43,0,0,1,1.22-.33A2,2,0,0,1,85,61.6a3.09,3.09,0,0,1,1.08-1,3.16,3.16,0,0,1,1.42-.31,2.56,2.56,0,0,1,2,.77,2.92,2.92,0,0,1,.69,2v3.17a3.21,3.21,0,0,0,.33,1.49l-1.68.62A4.14,4.14,0,0,1,88.33,66.32Z"/><path class="cls-3" d="M92.14,62.59a3.65,3.65,0,0,0-.1-1,2.5,2.5,0,0,0-.3-.72l1.54-.61a2,2,0,0,1,.51,1.26,3.25,3.25,0,0,1,2.61-1.24,3.36,3.36,0,0,1,1.8.48,3.27,3.27,0,0,1,1.22,1.4,5,5,0,0,1,.43,2.15,4.27,4.27,0,0,1-1,3,3.31,3.31,0,0,1-2.61,1.08A3,3,0,0,1,95,68.11a2.84,2.84,0,0,1-1-.76v4.4H92.14Zm5.35,3.64A3,3,0,0,0,98,64.34a3.07,3.07,0,0,0-.51-1.87A1.7,1.7,0,0,0,96,61.79a1.86,1.86,0,0,0-1.53.66A2.57,2.57,0,0,0,94,64.13v.42a2.6,2.6,0,0,0,.53,1.64,1.77,1.77,0,0,0,1.49.69A1.79,1.79,0,0,0,97.49,66.23Z"/><path class="cls-3" d="M101.26,56.5h1.86V68.24h-1.86Z"/><path class="cls-3" d="M106.41,67.91a3.35,3.35,0,0,1-1.4-1.39,4.4,4.4,0,0,1-.49-2.1,4.9,4.9,0,0,1,.43-2.1,3.26,3.26,0,0,1,1.29-1.46,3.85,3.85,0,0,1,2.09-.54,3.9,3.9,0,0,1,2.1.54,3.35,3.35,0,0,1,1.31,1.41,4.12,4.12,0,0,1,.43,1.88.88.88,0,0,1-.31.73,1.32,1.32,0,0,1-.86.26h-4.62a1.54,1.54,0,0,0,.6,1.26,2.47,2.47,0,0,0,1.59.48,3.07,3.07,0,0,0,2.21-.81l.93,1a3.36,3.36,0,0,1-1.32,1,5,5,0,0,1-4-.14Zm3.92-4.24a1.74,1.74,0,0,0-.55-1.33,2,2,0,0,0-1.45-.53,1.92,1.92,0,0,0-1.41.54,1.76,1.76,0,0,0-.54,1.32Z"/><path class="cls-3" d="M115.16,64.23l-2.49-3.75h2.09l1.6,2.61L118,60.48h2.08l-2.48,3.75,2.48,4H118l-1.59-2.8-1.57,2.8h-2.12Z"/><path class="cls-3" d="M128.57,58.67h-3.2V57h8.29v1.63h-3.2v9.57h-1.89Z"/><path class="cls-3" d="M135.12,67.91a3.41,3.41,0,0,1-1.35-1.44,5,5,0,0,1,0-4.2,3.41,3.41,0,0,1,1.35-1.44,4.48,4.48,0,0,1,4.15,0,3.43,3.43,0,0,1,1.33,1.44,4.93,4.93,0,0,1,0,4.2,3.43,3.43,0,0,1-1.33,1.44,4.48,4.48,0,0,1-4.15,0Zm3.55-1.69a3.63,3.63,0,0,0,0-3.71,1.73,1.73,0,0,0-1.47-.67,1.77,1.77,0,0,0-1.49.67,3.63,3.63,0,0,0,0,3.71,1.75,1.75,0,0,0,1.49.68A1.71,1.71,0,0,0,138.67,66.22Z"/><path class="cls-3" d="M143.71,68.21a.66.66,0,0,1-.23-.53.84.84,0,0,1,0-.19l0-.11-2-6.9h1.92l1.14,5L146,60.75c.08-.28.36-.43.84-.43s.91.22.91.64a1.48,1.48,0,0,1,0,.23l-.07.33,1.14,4,1.11-5h1.91l-2,6.9,0,.11a1.06,1.06,0,0,1,0,.21.64.64,0,0,1-.23.52,1,1,0,0,1-.65.18,1.26,1.26,0,0,1-.69-.15.8.8,0,0,1-.32-.49l-1.33-4.62-1.33,4.62a.84.84,0,0,1-.31.49,1.2,1.2,0,0,1-.68.15A1,1,0,0,1,143.71,68.21Z"/><path class="cls-3" d="M154.55,67.91a3.41,3.41,0,0,1-1.4-1.39,4.4,4.4,0,0,1-.48-2.1,5,5,0,0,1,.42-2.1,3.26,3.26,0,0,1,1.29-1.46,3.87,3.87,0,0,1,2.09-.54,3.92,3.92,0,0,1,2.11.54,3.39,3.39,0,0,1,1.3,1.41,4.12,4.12,0,0,1,.43,1.88.88.88,0,0,1-.31.73,1.31,1.31,0,0,1-.85.26h-4.63a1.54,1.54,0,0,0,.6,1.26,2.47,2.47,0,0,0,1.59.48,3.06,3.06,0,0,0,2.21-.81l.93,1a3.36,3.36,0,0,1-1.32,1,4.41,4.41,0,0,1-1.82.35A4.47,4.47,0,0,1,154.55,67.91Zm3.92-4.24a1.74,1.74,0,0,0-.55-1.33,2,2,0,0,0-1.45-.53,1.9,1.9,0,0,0-1.4.54,1.74,1.74,0,0,0-.55,1.32Z"/><path class="cls-3" d="M161.88,62.58a4.37,4.37,0,0,0-.07-.87,2.77,2.77,0,0,0-.28-.75l1.65-.64a3.46,3.46,0,0,1,.26.6,2.51,2.51,0,0,1,.14.67,3.23,3.23,0,0,1,.9-1,2.13,2.13,0,0,1,1.13-.31,2.57,2.57,0,0,1,.78.11,3,3,0,0,1,.74.4l-.7,1.3a1.82,1.82,0,0,0-1-.29,1.51,1.51,0,0,0-1.3.58,2.66,2.66,0,0,0-.43,1.63v4.19h-1.86Z"/></svg>